<svg id="图层_1" data-name="图层 1" xmlns="http://www.w3.org/2000/svg" viewBox="0 0 95.51 33.41"><defs><style>.cls-1{fill:#fdd300;}.cls-2{fill:#fff;}</style></defs><path class="cls-1" d="M17.27,21.23a4.85,4.85,0,0,1-6.31,4,.69.69,0,0,1-.29-1.1l4.94-5.89a.68.68,0,0,1,1.12.1,4.87,4.87,0,0,1,.54,2.87" transform="translate(0 -0.17)"/><path class="cls-2" d="M44.05,11.4H41.36L37.68,31.33h2.69L41,28.17h4.31l.58,3.16h2.69L44.85,11.4Zm-2.6,14.08,1.66-9,1.65,9Z" transform="translate(0 -0.17)"/><polygon class="cls-2" points="69.44 11.23 66.07 11.23 66.07 13.91 69.44 13.91 69.44 31.16 72.12 31.16 72.12 13.91 75.5 13.91 75.5 11.23 72.12 11.23 69.44 11.23"/><rect class="cls-1" x="92.82" y="11.23" width="2.69" height="19.93"/><path class="cls-1" d="M84.33,11.4H81.65L78,31.33h2.69l.58-3.16h4.31l.58,3.16h2.68L85.14,11.4Zm-2.6,14.08,1.66-9,1.66,9Z" transform="translate(0 -0.17)"/><polygon class="cls-2" points="59.43 23.59 55.05 11.23 52.37 11.23 52.37 31.16 55.05 31.16 55.05 18.81 59.43 31.16 62.11 31.16 62.11 11.23 59.43 11.23 59.43 23.59"/><path class="cls-2" d="M32.3,16a10.34,10.34,0,0,0-2.69-4.55,7.89,7.89,0,0,0-8.69-1.62L13,2,11.93,5.5,5,.17l8,7.23.84-2.73,6.52,5.45a18.11,18.11,0,0,0-4.62,3L7.78,8.81,7.72,12.3,0,9.29l9.13,4.48,0-2.71,5.94,2.6A28.55,28.55,0,0,0,12.83,16c-5.35,6.3-6.32,12.58-5.34,14.68,1,1.46,3,5.26,16.85.62,10.33-3.46,9.2-11.24,8-15.3m-15,5.19a4.85,4.85,0,0,1-6.31,4,.69.69,0,0,1-.29-1.1l4.94-5.89a.68.68,0,0,1,1.12.1,4.87,4.87,0,0,1,.54,2.87" transform="translate(0 -0.17)"/></svg>