<?xml version="1.0" encoding="utf-8"?>
<!-- Generator: Adobe Illustrator 25.3.1, SVG Export Plug-In . SVG Version: 6.00 Build 0)  -->
<svg version="1.1" id="图层_1" xmlns="http://www.w3.org/2000/svg" xmlns:xlink="http://www.w3.org/1999/xlink" x="0px" y="0px"
	 viewBox="0 0 448 83.9" style="enable-background:new 0 0 448 83.9;" xml:space="preserve">
<style type="text/css">
	.st0{fill:#FFFFFF;}
</style>
<path class="st0" d="M79.1,67.6l0,7H55l-7.5-7V34H55v33.6L79.1,67.6z M41.7,41v-7H13.1l-7.5,7l0,26.6l7.5,7l28.6,0l0-7l-28.6,0V41
	H41.7z M154.7,34h-21.1l-7.5,7h0v33.6h7.5V41h21.1v33.6h7.5V41h0L154.7,34z M337.9,34.1h-7.5v16.8l-22.6,0V34.1h-7.5v16.8h0l7.5,7
	l22.6,0v9.8h-22.6l0-4.2h-7.5v4.2l7.5,7h22.6l7.5-7L337.9,34.1z M120,41l0-7l-28.6,0l-7.5,7v9.8v7v9.8l7.5,7l28.6,0v-7l-28.6,0v-9.8
	H117l0-7l-25.6,0V41H120z M204.5,41l0-7l-28.6,0l-7.5,7v9.8v7v9.8l7.5,7l28.6,0v-7l-28.6,0v-9.8h25.6l0-7l-25.6,0V41H204.5z
	 M240.1,34l7.5,7v9.8l-3.8,3.5l3.8,3.5h0l0,12.7v4.1h-7.5V57.8l-22.2,0v16.8h-7.5V34L240.1,34z M240.1,50.9l0-9.8l-22.2,0v9.8H240.1
	z M294.2,57.8l-7.5-7h-13.6l0,7h13.6v9.8h-25.6l0-26.6l25.6,0v4.2l7.5,0V41h0l-7.5-7l-25.6,0l-7.5,7v26.6l7.5,7h25.6l7.5-7
	L294.2,57.8z"/>
<g>
	<path class="st0" d="M416.2,31c-1.1,2.2-2.7,4-4.4,5.7c-0.8,0.8-1.6,1.5-2.4,2.1c0.6-0.3,19.5-11,13.5-20.6
		c-5.8-9.2-25.2-6.1-31.3-5.1c15,0.4,27.4,5,25.8,14.3C417.2,28.8,416.7,29.9,416.2,31z"/>
	<path class="st0" d="M383.2,10.4c-4.5,1-8.7,2.3-12.6,3.7c0,0,0.4,0,0.6,0c0,0,0,0,0,0c4.3-0.2,8.6-0.4,12.9-0.3c0.1,0,0.3,0,0.4,0
		c0.1,0,0.2,0,0.3-0.1c2.9-0.8,5.8-1.4,8.7-1.9c3-0.5,6.1-0.8,9.1-1c14.3-0.8,19.1,3.8,20.9,6c3.6,4.3,1.1,9.2,0.6,10.1
		c-0.7,1.4-1.7,2.7-2.7,3.8c-2,2.3-4.4,4.1-6.9,5.9c0,0-0.1,0.1-0.1,0.1c-2.5,1.7-5.2,3.3-7.9,4.6c1.1-0.4,11.3-4.2,16-9
		c0,0,0.1-0.1,0.1-0.1c-0.1,0.1-0.1,0.2-0.1,0.2c3.3-3,5.7-6.9,5.9-10.8c0.3-4-1.7-8.1-7.3-11.1c-0.3-0.2-0.7-0.3-1.1-0.5
		c-0.2-0.1-0.4-0.2-0.6-0.3c-0.6-0.2-1.2-0.5-1.8-0.7c-1.5-0.4-3.2-0.7-5-0.8C401.8,7.3,391.9,8.4,383.2,10.4z"/>
	<path class="st0" d="M411.4,36.4c0.8-0.9,1.5-1.8,2.2-2.7c0.7-1,1.3-1.9,1.8-3c0.5-1,0.8-2.1,1-3.2c0.2-1.1,0.1-2.2-0.3-3.3
		c-0.3-1-0.9-2-1.7-2.8c-0.7-0.8-1.7-1.5-2.6-2.2c-1-0.6-2-1.2-3.1-1.6c-0.5-0.2-1.1-0.5-1.6-0.7c-0.5-0.2-1.1-0.4-1.6-0.6
		c-2.2-0.7-4.5-1.1-6.9-1.4c-4.7-0.6-9.4-0.8-14.1-1c-13.1,3.4-21.6,7.8-22.1,8.1c0,0,20.9-5.5,35.6-3.9c24.3,2.7,8.5,23,8.4,23.3
		c0.4-0.1,1.8-1.6,2.2-2C409.5,38.4,410.5,37.4,411.4,36.4z"/>
	<path class="st0" d="M400.2,23.3c10.1,3.1,10.2,9,8.7,13.2c0.9-1.7,4.7-10.3-2.5-14.8c-7.7-4.8-24.2-3.4-48.2,2.2
		c-2.1,1.1-4.2,2.3-6.2,3.6c-2.6,1.7-5.2,3.5-7.6,5.4C353.4,29.8,385.4,18.9,400.2,23.3z"/>
	<path class="st0" d="M366.7,14.5c27.4-10.5,44.5-7,46.1-6.8c0.1,0-23.2-7.9-57.7,7.9C359.7,15,366.7,14.5,366.7,14.5z"/>
	<path class="st0" d="M377.7,14.8c-5.6,0.2-10.2,0.8-10.5,0.8c-11.9,4.6-20.4,10.4-21.7,11.4c3.4-1.1,4.8-1.5,9.2-2.7
		C354.8,24.3,366.6,17.9,377.7,14.8z"/>
	<path class="st0" d="M372.4,41c1.1-2.2,2.7-4,4.4-5.7c0.8-0.8,1.6-1.5,2.4-2.1c-0.6,0.3-19.5,11-13.5,20.6
		c5.8,9.2,25.2,6.1,31.3,5.1c-15-0.4-27.4-5-25.8-14.3C371.4,43.2,371.8,42.1,372.4,41z"/>
	<path class="st0" d="M405.4,61.6c4.5-1,8.7-2.3,12.6-3.7c0,0-0.4,0-0.6,0c0,0,0,0,0,0c-4.3,0.2-8.6,0.4-12.9,0.3
		c-0.1,0-0.3,0-0.4,0c-0.1,0-0.2,0-0.3,0.1c-2.9,0.8-5.8,1.4-8.7,1.9c-3,0.5-6.1,0.8-9.1,1c-14.3,0.8-19.1-3.8-20.9-6
		c-3.6-4.3-1.1-9.2-0.6-10.1c0.7-1.4,1.7-2.7,2.7-3.8c2-2.3,4.4-4.2,6.9-5.9c0,0,0.1-0.1,0.1-0.1c2.5-1.7,5.2-3.3,7.9-4.6
		c-1.1,0.4-11.3,4.2-16,9c0,0-0.1,0.1-0.1,0.1c0.1-0.1,0.1-0.2,0.1-0.2c-3.3,3-5.7,6.9-5.9,10.8c-0.3,4,1.7,8.1,7.3,11.1
		c0.3,0.2,0.7,0.3,1.1,0.5c0.2,0.1,0.4,0.2,0.6,0.3c0.6,0.2,1.2,0.5,1.8,0.7c1.5,0.4,3.2,0.7,5,0.8
		C386.7,64.7,396.6,63.6,405.4,61.6z"/>
	<path class="st0" d="M377.1,35.7c-0.8,0.9-1.5,1.8-2.2,2.7c-0.7,1-1.3,1.9-1.8,3c-0.5,1-0.8,2.1-1,3.2c-0.2,1.1-0.1,2.2,0.3,3.3
		c0.3,1,0.9,2,1.7,2.8c0.7,0.8,1.7,1.5,2.6,2.2c1,0.6,2,1.2,3.1,1.6c0.5,0.2,1.1,0.5,1.6,0.7c0.5,0.2,1.1,0.4,1.6,0.6
		c2.2,0.7,4.5,1.1,6.9,1.4c4.7,0.6,9.4,0.8,14.1,1c13.1-3.4,21.6-7.8,22.1-8.1c0,0-20.9,5.5-35.6,3.9c-24.3-2.7-8.5-23-8.4-23.3
		c-0.4,0.1-1.8,1.6-2.2,2C379,33.7,378,34.6,377.1,35.7z"/>
	<path class="st0" d="M388.4,48.7c-10.1-3.1-10.2-9-8.7-13.2c-0.9,1.7-4.7,10.3,2.5,14.8c7.7,4.8,24.2,3.4,48.2-2.2
		c2.1-1.1,4.2-2.3,6.2-3.6c2.6-1.7,5.2-3.5,7.6-5.4C435.2,42.2,403.2,53.1,388.4,48.7z"/>
	<path class="st0" d="M421.9,57.6c-27.4,10.5-44.5,7-46.1,6.8c-0.1,0,23.2,7.9,57.7-7.9C428.8,57,421.9,57.6,421.9,57.6z"/>
	<path class="st0" d="M410.8,57.2c5.6-0.2,10.2-0.8,10.5-0.8C433.1,51.8,441.7,46,443,45c-3.4,1.1-4.8,1.5-9.2,2.7
		C433.8,47.8,422,54.1,410.8,57.2z"/>
</g>
</svg>
